<?xml version="1.0" standalone="no"?>
<!DOCTYPE svg PUBLIC "-//W3C//DTD SVG 20010904//EN"
 "http://www.w3.org/TR/2001/REC-SVG-20010904/DTD/svg10.dtd">
<svg version="1.0" xmlns="http://www.w3.org/2000/svg"
 width="401.000000pt" height="121.000000pt" viewBox="0 0 401.000000 121.000000"
 preserveAspectRatio="xMidYMid meet">

<g transform="translate(0.000000,121.000000) scale(0.100000,-0.100000)"
fill="#000000" stroke="none">
<path d="M475 836 c-70 -26 -104 -82 -91 -150 11 -60 52 -84 213 -126 50 -13
73 -33 73 -65 0 -72 -159 -83 -198 -14 -15 25 -23 29 -61 29 -42 0 -43 -1 -37
-27 19 -80 85 -118 201 -117 123 0 185 44 185 131 0 88 -33 116 -179 149 -82
19 -111 37 -111 69 0 34 36 55 93 55 38 0 53 -5 72 -25 14 -13 25 -29 25 -35
0 -5 21 -10 46 -10 45 0 46 1 40 28 -10 41 -38 75 -79 95 -51 25 -142 31 -192
13z"/>
<path d="M969 836 c-102 -36 -144 -105 -144 -236 1 -98 22 -152 77 -193 106
-80 294 -50 350 56 19 35 23 58 23 137 0 79 -4 102 -22 137 -51 94 -176 138
-284 99z m171 -101 c60 -58 63 -190 6 -253 -59 -64 -175 -51 -210 23 -22 45
-21 150 2 195 36 73 143 91 202 35z"/>
<path d="M2874 840 c-78 -24 -119 -104 -90 -174 19 -46 63 -72 156 -92 95 -20
120 -36 120 -73 0 -36 -25 -59 -75 -66 -48 -7 -105 18 -120 53 -8 18 -18 22
-58 22 -47 0 -47 0 -41 -27 15 -70 72 -109 170 -119 74 -8 134 8 178 46 39 35
50 77 36 131 -15 55 -37 67 -202 113 -86 24 -108 56 -68 96 31 31 113 28 145
-5 14 -13 25 -29 25 -35 0 -5 20 -10 45 -10 37 0 45 3 45 19 0 28 -41 83 -78
104 -38 22 -141 31 -188 17z"/>
<path d="M1350 795 l0 -35 170 0 170 0 0 35 0 35 -170 0 -170 0 0 -35z"/>
<path d="M2310 605 l0 -225 45 0 44 0 3 151 3 151 100 -149 100 -148 48 -3 47
-3 0 225 0 226 -45 0 -44 0 -3 -146 -3 -147 -94 147 -95 146 -53 0 -53 0 0
-225z"/>
<path d="M3272 612 c-45 -120 -82 -222 -82 -225 0 -4 22 -7 49 -7 49 0 49 0
63 43 l15 42 95 3 95 3 13 -46 13 -45 53 0 54 0 -15 38 c-8 20 -46 120 -84
222 l-68 185 -60 3 -59 3 -82 -219z m198 -54 c0 -4 -27 -8 -60 -8 -33 0 -60 4
-60 10 0 5 10 35 21 67 45 120 38 118 70 23 16 -46 29 -88 29 -92z"/>
<path d="M1350 515 l0 -135 45 0 45 0 0 95 0 95 110 0 110 0 0 40 0 40 -155 0
-155 0 0 -135z"/>
</g>
</svg>
