<svg xmlns="http://www.w3.org/2000/svg" width="401" height="121" viewBox="0 0 401 121" version="1.1"><path d="M 174 41 L 174 45 180.978 45 L 187.957 45 188.228 64.250 L 188.500 83.500 193.500 83.500 L 198.500 83.500 198.772 64.250 L 199.043 45 202.847 45 C 206.571 45, 207.860 44.112, 211.920 38.750 C 213.171 37.098, 212.149 37, 193.622 37 L 174 37 174 41 M 217.134 41.470 L 212.956 46.003 213.228 64.752 L 213.500 83.500 218.500 83.500 L 223.500 83.500 223.500 60.583 C 223.500 44.884, 223.156 37.552, 222.406 37.302 C 221.805 37.102, 219.432 38.977, 217.134 41.470 M 144.360 74 C 144.360 79.225, 144.529 81.362, 144.735 78.750 C 144.941 76.138, 144.941 71.862, 144.735 69.250 C 144.529 66.638, 144.360 68.775, 144.360 74 M 233.264 83.718 C 234.784 83.947, 237.034 83.941, 238.264 83.704 C 239.494 83.467, 238.250 83.279, 235.500 83.286 C 232.750 83.294, 231.744 83.488, 233.264 83.718 M 263.264 83.718 C 264.784 83.947, 267.034 83.941, 268.264 83.704 C 269.494 83.467, 268.250 83.279, 265.500 83.286 C 262.750 83.294, 261.744 83.488, 263.264 83.718 M 321.264 83.718 C 322.784 83.947, 325.034 83.941, 326.264 83.704 C 327.494 83.467, 326.250 83.279, 323.500 83.286 C 320.750 83.294, 319.744 83.488, 321.264 83.718 M 356.250 83.716 C 357.762 83.945, 360.238 83.945, 361.750 83.716 C 363.262 83.487, 362.025 83.300, 359 83.300 C 355.975 83.300, 354.738 83.487, 356.250 83.716" stroke="none" fill="#12bfe5" fill-rule="evenodd"/><path d="M 47.317 37.228 C 39.754 39.659, 35.824 48.892, 39.406 55.817 C 41.436 59.744, 44.402 61.296, 55.071 64.013 C 66.755 66.989, 69.725 70.275, 65 75 C 60.781 79.219, 47 76.483, 47 71.427 C 47 70.381, 45.665 70, 42 70 C 36.330 70, 35.893 70.864, 38.638 76.649 C 40.849 81.308, 46.693 84.170, 55.253 84.784 C 69.917 85.837, 79.381 77.397, 75.787 66.472 C 74.234 61.750, 69.736 58.910, 60.067 56.545 C 50.253 54.145, 48.050 53.048, 47.337 50.205 C 46.473 46.766, 49.918 44, 55.064 44 C 60.185 44, 63.917 45.822, 64.632 48.671 C 65.145 50.713, 65.821 51, 70.108 51 C 75.861 51, 76.435 49.454, 72.742 43.898 C 68.256 37.147, 56.863 34.158, 47.317 37.228 M 96.500 37.207 C 87.750 40.265, 82.947 47.466, 82.219 58.621 C 81.133 75.238, 89.687 84.976, 105.384 84.994 C 115.925 85.006, 124.669 79.518, 126.884 71.500 C 128.304 66.357, 128.302 55.629, 126.879 50.503 C 125.431 45.286, 118.714 38.569, 113.497 37.121 C 108.591 35.759, 100.525 35.799, 96.500 37.207 M 285.271 37.910 C 277.998 41.304, 275.230 48.468, 278.516 55.393 C 280.507 59.589, 284.055 61.566, 293.751 63.882 C 304.316 66.405, 306 67.381, 306 70.978 C 306 74.987, 302.796 77, 296.412 77 C 291.012 77, 286 74.318, 286 71.427 C 286 70.377, 284.650 70, 280.892 70 C 275.827 70, 275.789 70.024, 276.437 72.750 C 277.357 76.624, 280.143 80.167, 284.105 82.500 C 289.344 85.586, 304.079 85.384, 309.274 82.153 C 314.276 79.044, 316.360 74.884, 315.727 69.272 C 314.881 61.766, 311.575 59.659, 293.409 55.047 C 281.154 51.936, 285.964 42.082, 298.581 44.449 C 301.103 44.922, 302.656 45.989, 303.831 48.054 C 305.265 50.574, 306.098 50.988, 309.750 50.994 C 313.423 50.999, 314 50.711, 314 48.868 C 314 45.406, 310.245 40.347, 306.234 38.405 C 300.669 35.710, 290.500 35.470, 285.271 37.910 M 134.667 37.667 C 134.300 38.033, 134 39.833, 134 41.667 L 134 45 151.500 45 L 169 45 169 41 L 169 37 152.167 37 C 142.908 37, 135.033 37.300, 134.667 37.667 M 231 60 L 231 83 235.474 83 L 239.948 83 240.224 68.069 L 240.500 53.138 250.500 68.028 L 260.500 82.918 265.250 82.959 L 270 83 270 60 L 270 37 265.527 37 L 261.053 37 260.777 51.750 L 260.500 66.500 250.787 51.750 L 241.074 37 236.037 37 L 231 37 231 60 M 335.137 38.744 C 334.595 39.756, 330.571 50.128, 326.195 61.792 L 318.237 83 323.536 83 L 328.835 83 330.567 78.464 L 332.299 73.929 341.319 74.214 L 350.338 74.500 351.752 78.750 L 353.167 83 358.583 83 C 361.563 83, 363.990 82.888, 363.978 82.750 C 363.967 82.612, 360.184 72.375, 355.573 60 L 347.190 37.500 341.656 37.202 C 337.116 36.957, 335.945 37.234, 335.137 38.744 M 102.073 44.720 C 95.175 46.043, 91.463 52.902, 92.192 62.979 C 92.727 70.378, 95.100 73.942, 100.841 75.969 C 104.499 77.261, 105.508 77.261, 109.217 75.969 C 115.369 73.826, 118 69.438, 118 61.320 C 118 50.932, 114.797 45.871, 107.500 44.725 C 105.850 44.467, 103.408 44.464, 102.073 44.720 M 338.064 56.250 C 336.783 60.237, 335.521 64.063, 335.260 64.750 C 334.912 65.667, 336.443 66, 341 66 C 345.557 66, 347.088 65.667, 346.740 64.750 C 346.479 64.063, 345.217 60.237, 343.936 56.250 C 342.655 52.263, 341.333 49, 341 49 C 340.667 49, 339.345 52.263, 338.064 56.250 M 134.222 69.750 L 134.500 83.500 139.213 83.803 L 143.926 84.107 144.213 74.303 L 144.500 64.500 155.250 64.216 L 166 63.932 166 59.966 L 166 56 149.972 56 L 133.944 56 134.222 69.750" stroke="none" fill="#3d659c" fill-rule="evenodd"/></svg>